<svg width="1255" height="603" viewBox="0 0 1255 603" fill="none" xmlns="http://www.w3.org/2000/svg">
<path d="M868.982 183.804C857.936 195.255 857.387 195.728 857.054 194.112C856.865 193.178 853.024 168.35 848.525 138.939L840.34 85.4647H756.395L756.736 86.8346C756.921 87.5877 758.446 95.8864 760.126 105.271C764.353 128.926 778.794 208.954 784.534 240.559L789.295 266.765L781.291 274.715C776.89 279.09 753.266 302.124 728.793 325.904C671.656 381.425 617.198 434.385 603.23 448.019L579.927 470.762L567.599 482.8H652.936L666.79 469.23C674.407 461.767 695.315 441.39 713.248 423.948L773.583 365.271C796.091 343.383 801.393 338.513 801.741 339.402C802.15 340.439 805.287 361.763 805.287 363.625L815.837 438.298C816.015 438.93 817.472 449.976 819.076 461.624L821.998 482.8H864.539C893.155 482.8 907.077 482.595 907.077 482.175C907.077 481.831 904.349 466.407 901.011 447.895C876.274 310.699 869.289 271.885 869.289 271.688C869.289 271.563 887.46 253.815 909.67 232.245C931.879 210.679 959.787 183.57 971.688 172.001C1021.88 123.231 1055.7 90.4258 1058.55 87.7466L1061.59 84.882L1012.75 84.8668L963.901 84.8555L952.189 97.0443L880.302 172.001L868.982 183.804Z" fill="#1361AC"/>
<path d="M909.779 85.4647C887.509 85.4647 869.289 85.5328 869.292 85.6161L880.302 172.001L952.189 97.0443L950.498 85.4647H909.779Z" fill="#DC0612"/>
<path fill-rule="evenodd" clip-rule="evenodd" d="M450.327 84.916C449.85 85.8394 441.722 104.836 432.261 127.125C422.801 149.414 406.616 187.532 396.296 211.83C385.973 236.132 359.367 298.794 337.172 351.08C314.974 403.37 293.552 453.802 289.564 463.156C285.575 472.511 282.313 480.397 282.313 480.677C282.313 481.385 417.272 481.305 456.639 480.575C474.239 480.249 490.833 479.693 493.516 479.334C511.525 476.938 536.712 468.662 558.373 458.025C579.731 447.539 596.286 436.353 610.008 423.138C620.766 412.781 627.657 403.552 634.563 390.265C636.531 386.477 639.952 380.09 642.166 376.067C652.391 357.502 658.457 340.556 660.523 324.776C661.666 316.092 661.67 311.831 660.553 304.433C658.358 289.875 650.457 276.819 639.665 269.917L636.297 267.76L640.792 265.792C666.422 254.576 686.986 236.59 702.13 212.14C709.619 200.053 717.766 180.614 721.418 166.125C726.523 145.887 724.32 127.511 715.144 113.755C707.023 101.582 693.313 91.7351 676.276 85.8356L669.669 83.5499L560.428 83.391L451.19 83.2321L450.327 84.916ZM119.93 84.9993C119.809 85.2074 112.929 102.244 104.642 122.856C95.4882 145.61 86.338 168.361 77.1954 191.111C9.14832 360.245 1.77674 378.784 1.22046 382.16C0.270634 387.904 0.47498 405.073 1.57996 412.327C4.59217 432.126 11.5248 446.4 23.9558 458.403C36.7236 470.728 54.2595 477.752 77.9409 480.034C89.2556 481.12 118.659 480.949 130.844 479.723C200.109 472.753 252.202 445.632 281.363 401.357C285.602 394.924 287.713 390.659 294.952 373.933C314.588 328.549 420.216 85.3436 420.47 84.9198C420.625 84.6701 404.871 84.4657 385.466 84.4657H350.182L331.996 127.885C321.994 151.767 307.028 187.486 298.74 207.262C290.453 227.035 279.085 254.186 273.473 267.594C267.865 281.001 261.546 296.081 259.43 301.11C257.315 306.139 250.481 322.453 244.24 337.37C231.73 367.284 230.735 369.116 221.857 378.489C197.491 404.233 162.529 418.185 125.209 417.057C116.907 416.808 114.905 416.543 110.424 415.101C87.6549 407.775 78.9362 388.789 85.2293 360.223C85.246 360.147 85.2619 360.073 85.2772 360.002C85.2905 359.939 85.3034 359.879 85.3162 359.818C85.3307 359.75 85.345 359.682 85.3595 359.615L85.3726 359.554C86.2189 355.648 87.8069 351.901 160.31 180.855L167.679 163.472C185.847 120.616 200.624 85.4799 200.518 85.389C200.109 85.0333 120.138 84.6473 119.93 84.9993ZM495.627 154.076C495.291 154.836 487.646 173.973 478.648 196.595L462.281 237.733L523.002 237.888C581.725 238.039 583.882 238.005 588.487 236.839C597.111 234.664 604.494 230.21 613.062 222.021C623.832 211.728 631.869 200.527 634.575 192.042C640.452 173.629 637.171 160.978 624.971 155.01L620.906 153.024L558.573 152.857L496.244 152.691L495.627 154.076ZM433.362 310.65C425.268 329.393 390.2 411.733 390.2 412.002C390.2 412.179 417.859 412.327 451.663 412.327C511.218 412.327 513.235 412.289 516.788 411.124C529.117 407.075 541.098 399.207 552.961 387.355C559.701 380.623 567.216 371.428 569.907 366.622C577.88 352.371 578.777 336.594 572.31 324.379C569.858 319.747 562.952 312.648 558.396 310.075C558.139 309.93 557.894 309.79 557.659 309.656L557.656 309.654C556.859 309.199 556.164 308.803 555.444 308.456C550.566 306.108 544.571 306.08 497.913 305.862H497.912L497.405 305.86L496.795 305.857C495.135 305.849 493.424 305.841 491.661 305.833L435.557 305.564L433.362 310.65Z" fill="#1361AC"/>
<path d="M805.287 363.625C805.287 364.105 777.757 390.822 744.112 422.995L682.933 481.494L726.882 481.653L770.836 481.808L793.174 459.478C810.846 441.817 815.583 437.39 815.837 438.298L805.287 363.625Z" fill="#DC0612"/>
<path d="M1048.43 120.987C982.523 187.085 921.703 248.196 913.276 256.782L897.954 272.399L907.361 327.474C912.534 357.767 920.352 403.665 924.738 429.477C929.124 455.285 932.999 477.839 933.347 479.598L933.987 482.8H975.389C1005.97 482.8 1016.8 482.618 1016.8 482.104C1016.8 481.411 1010.03 439.827 992.134 330.445L982.708 272.857L1118.76 136.805L1254.81 0.755859L1168.26 0.808838L1048.43 120.987Z" fill="#DC0612"/>
<path d="M373.319 536.649C378.669 525.436 389 518.367 403.04 516.316C409.658 515.351 418.876 516.778 424.791 519.68C430.475 522.469 435.765 527.828 438.596 533.667L438.687 533.855C440.437 537.465 441.212 539.062 440.72 539.984C440.331 540.716 439.144 541.024 437.018 541.575L436.87 541.613C434.524 542.219 432.147 542.722 431.595 542.73C430.944 542.737 429.934 541.352 428.749 538.824C426.384 533.769 422.679 529.792 418.365 527.672C415.172 526.106 414.403 525.988 407.611 526.015C398.438 526.053 394.957 527.249 389.621 532.187C385.613 535.895 383.021 540.501 381.277 547.01C379.646 553.091 379.812 566.517 381.595 572.803C384.728 583.845 389.575 589.29 398.832 592.17C403.342 593.574 410.733 593.691 414.998 592.424C421.979 590.35 428.049 584.045 430.558 576.254L431.867 572.182L436.806 573.393C439.523 574.059 441.994 574.827 442.297 575.1C443.231 575.94 439.678 584.507 436.545 588.969C432.863 594.213 430.263 596.393 424.068 599.447C418.154 602.357 412.33 603.379 404.565 602.864C393.912 602.156 387.203 599.436 381.061 593.336C376.301 588.609 373.879 584.545 371.427 577.162C366.938 563.656 367.642 548.546 373.319 536.649Z" fill="#010101"/>
<path d="M25 517.822L28.5723 517.637C31.7207 517.474 34.941 517.497 36.2239 517.694C36.4585 517.728 36.7347 531.4 36.8369 548.077C37.0223 577.847 37.0488 578.456 38.3884 581.771C41.7715 590.134 50.3199 593.975 62.5315 592.617C73.8992 591.353 78.3834 586.675 79.969 574.434C80.2982 571.921 80.5707 558.158 80.582 543.854L80.601 517.845L86.1259 517.648L91.6545 517.455L91.4124 547.619C91.2042 573.491 91.0226 578.339 90.1371 581.688C86.5648 595.197 77.2406 602.001 61.0973 602.879C45.5367 603.723 33.9799 598.421 29.1588 588.219C25.9233 581.374 25.6357 578.282 25.3065 546.889L25 517.822Z" fill="#010101"/>
<path d="M229.936 559.91C229.936 536.838 230.05 517.849 230.19 517.709C230.326 517.569 232.316 517.508 234.61 517.576L239.839 517.728C240.846 517.758 240.906 520.18 240.906 559.808V601.857H229.936V559.91Z" fill="#010101"/>
<path d="M951.617 527.51V522.481V517.455L984.834 517.618L1018.06 517.781V527.51H990.015V601.903L984.683 601.729L979.351 601.551L979.192 564.53L979.037 527.51H951.617Z" fill="#010101"/>
<path d="M1153.98 559.91C1153.98 536.838 1154.12 517.822 1154.29 517.648C1154.46 517.478 1155.35 517.406 1156.27 517.489C1157.19 517.569 1159.6 517.663 1161.62 517.697L1165.31 517.758L1209.14 583.186L1209.45 550.423L1209.75 517.656L1214.63 517.595L1219.5 517.535L1219.66 559.717L1219.82 601.903L1214.25 601.729L1208.67 601.551L1164.65 535.971L1164.49 568.912L1164.33 601.857H1153.98V559.91Z" fill="#010101"/>
<path d="M284.004 558.162C284.216 557.624 261.659 525.008 256.592 518.519C256.123 517.921 257.417 517.758 262.65 517.758H269.303L277.56 529.489C282.101 535.941 287.001 542.979 288.447 545.133C291.035 548.985 291.088 549.027 292.05 547.74C295.925 542.529 299.803 537.322 303.69 532.119L314.354 517.8L320.298 517.777C323.564 517.765 326.24 517.89 326.24 518.049C326.24 518.208 319.795 526.957 311.917 537.492C304.038 548.028 297.593 556.848 297.593 557.091C297.593 557.337 304.587 567.334 313.135 579.308C321.683 591.285 328.68 601.256 328.68 601.468C328.68 601.683 325.717 601.857 322.096 601.857H315.511L304.874 586.823C299.028 578.555 293.488 570.6 292.564 569.151C291.641 567.698 290.68 566.521 290.43 566.532C290.18 566.54 289.2 567.823 288.254 569.382C287.304 570.941 281.715 578.884 275.831 587.035L265.133 601.857H258.745C253.723 601.857 252.422 601.687 252.664 601.055C252.834 600.616 259.888 590.948 268.345 579.576C276.799 568.201 283.845 558.563 284.004 558.162Z" fill="#010101"/>
<path d="M1031.46 601.857V559.808V517.758H1042.44V601.857H1031.46Z" fill="#010101"/>
<path d="M104.982 576.261V571.081V565.9H136.679V576.261H104.982Z" fill="#010101"/>
<path fill-rule="evenodd" clip-rule="evenodd" d="M148.868 601.998V559.842V517.686L170.048 517.883C190.516 518.072 191.349 518.125 194.732 519.483C205.801 523.926 211.235 536.471 206.535 546.73C204.631 550.885 203.295 552.478 199.5 555.1L196.798 556.97L199.034 557.745C202.383 558.903 206.41 561.893 208.563 564.822C211.337 568.587 212.453 573.003 212.143 578.975C211.696 587.428 207.394 594.471 200.537 597.96C194.607 600.98 191.466 601.354 169.438 601.687L148.868 601.998ZM159.978 540.103L160.144 552.799L172.943 552.731C186.369 552.659 189.317 552.239 192.783 549.904C195.984 547.744 197.271 544.993 197.271 540.304C197.271 534.904 195.254 531.294 191.088 529.243C188.337 527.888 187.432 527.805 173.998 527.612L159.815 527.411L159.978 540.103ZM159.838 591.572V577.166V562.759L174.619 563.009C190.978 563.289 192.783 563.611 196.42 566.895C199.655 569.821 200.881 573.276 200.578 578.642C200.276 584.004 198.202 587.307 193.68 589.635C190.709 591.167 190.399 591.194 175.247 591.383L159.838 591.572Z" fill="#010101"/>
<path fill-rule="evenodd" clip-rule="evenodd" d="M485.523 516.558C477.27 518.045 469.861 522.166 464.056 528.501C456.972 536.232 453.517 546.461 453.475 559.808C453.445 569.045 454.463 573.654 458.311 581.676C465.062 595.757 479.529 603.909 495.971 602.902C513.644 601.816 526.355 591.705 531.747 574.434C533.003 570.415 533.174 568.644 533.174 559.808C533.174 548.186 532.493 544.8 528.512 536.686C524.046 527.57 516.103 520.978 505.746 517.777C500.864 516.271 490.568 515.65 485.523 516.558ZM466.16 547.191C468.759 536.622 476.29 528.842 486.363 526.31C487.639 525.992 491.483 525.811 494.912 525.909C500.652 526.076 501.493 526.261 505.579 528.282C516.709 533.784 522.128 544.024 522.094 559.501C522.067 573.325 518.188 582.49 509.84 588.469C498.685 596.454 481.512 594.546 472.51 584.322C465.32 576.159 462.743 561.079 466.16 547.191Z" fill="#010101"/>
<path fill-rule="evenodd" clip-rule="evenodd" d="M548.257 559.656L548.413 601.551H559.387L559.546 582.747L559.708 563.948L569.297 564.186C578.217 564.409 579.102 564.538 581.937 566.025C586.977 568.663 589.887 572.322 601.418 590.505L608.615 601.857H615.578C620.989 601.857 622.443 601.687 622.087 601.093C617.856 594.058 605.758 575.652 603.48 572.791C600.316 568.814 596.994 565.878 594.243 564.625C593.342 564.212 592.604 563.709 592.604 563.505C592.604 563.3 594.194 562.831 596.135 562.464C603.775 561.011 610.405 556.402 613.224 550.574C618.526 539.623 614.083 525.054 603.991 520.312C599.257 518.087 595.034 517.758 571.156 517.758H548.099L548.257 559.656ZM559.689 554.835V540.868V526.9H575.428C593.066 526.9 595.859 527.339 599.719 530.73C604.199 534.662 605.346 540.531 602.731 546.143C601.194 549.443 599.098 551.445 595.651 552.894C592.733 554.124 582.145 554.941 569.899 554.881L559.689 554.835Z" fill="#010101"/>
<path fill-rule="evenodd" clip-rule="evenodd" d="M633.053 518.064C632.925 518.397 632.894 537.318 632.981 560.11L633.137 601.551H644.111L644.273 584.337L644.432 567.119L659.206 567.111C679.519 567.096 684.863 565.806 690.664 559.513C700.635 548.697 699.133 529.803 687.689 522.129C681.911 518.254 681.086 518.14 656.069 517.781C641.14 517.565 633.205 517.663 633.053 518.064ZM644.413 557.465V542.488V527.51L659.194 527.514C667.815 527.514 674.956 527.786 676.325 528.168C677.62 528.528 679.867 529.916 681.321 531.26C684.764 534.431 686.138 538.355 685.703 543.774C685.256 549.341 683.008 552.803 678.267 555.229L674.676 557.064L659.546 557.265L644.413 557.465Z" fill="#010101"/>
<path fill-rule="evenodd" clip-rule="evenodd" d="M739.196 516.884C725.384 519.605 714.379 530.212 710.122 544.906C708.911 549.091 708.718 551.119 708.718 559.808C708.718 569.238 708.828 570.195 710.474 575.213C713.573 584.662 718.466 591.398 725.792 596.299C737.606 604.196 753.231 605.138 766.843 598.773C770.926 596.862 772.864 595.455 776.625 591.659C781.946 586.289 784.962 580.893 787.115 572.874C788.95 566.04 788.946 553.057 787.107 546.151C783.936 534.234 776.78 525.069 766.93 520.305C758.359 516.157 748.845 514.984 739.196 516.884ZM720.812 548.436C723.189 537.216 730.231 529.477 740.721 526.552C744.554 525.485 751.994 525.508 756.191 526.602C765.795 529.103 772.773 536.577 775.853 547.668C776.663 550.589 776.932 553.738 776.917 560.11C776.894 567.664 776.705 569.208 775.274 573.552C772.455 582.112 766.597 588.67 759.214 591.527C753.894 593.589 745.194 593.877 739.597 592.178C735.037 590.793 729.417 587.005 726.621 583.432C724.248 580.405 721.925 575.52 720.805 571.225C719.541 566.366 719.541 554.423 720.812 548.436Z" fill="#010101"/>
<path fill-rule="evenodd" clip-rule="evenodd" d="M803.754 517.709C803.614 517.849 803.5 536.838 803.5 559.91V601.857H814.471V563.944L824.071 564.194C831.091 564.379 834.27 564.708 835.893 565.42C840.93 567.63 845.792 573.669 857.497 592.249L863.54 601.842L870.397 601.85C874.17 601.854 877.254 601.74 877.254 601.596C877.254 601.017 861.648 576.924 859.249 573.798C856.218 569.855 852.498 566.369 849.86 565.007C848.835 564.477 847.995 563.83 847.995 563.569C847.995 563.312 849.603 562.767 851.571 562.362C859.574 560.708 865.481 556.262 868.634 549.522C870.007 546.578 870.234 545.273 870.238 540.274C870.242 534.753 870.125 534.212 867.915 529.742C866.163 526.197 864.834 524.437 862.541 522.624C857.039 518.276 856.233 518.163 828.593 517.788C815.069 517.603 803.894 517.569 803.754 517.709ZM814.474 555.032V540.925L814.471 526.813L831.693 527.01L848.911 527.203L852.085 528.963C856.426 531.37 858.519 534.522 858.855 539.157C859.192 543.827 857.841 547.456 854.7 550.287C850.765 553.844 847.904 554.362 830.167 554.718L814.474 555.032Z" fill="#010101"/>
<path fill-rule="evenodd" clip-rule="evenodd" d="M911.104 517.731C910.748 518.314 879.521 599.682 879.226 600.79C878.968 601.752 879.513 601.857 884.739 601.857H890.54L892.133 597.438C893.011 595.008 895.07 589.317 896.708 584.795L899.687 576.568H935.254L937.362 582.051C938.524 585.067 940.719 590.758 942.244 594.698L945.014 601.857H951.057C955.216 601.857 957.1 601.638 957.1 601.154C957.1 600.639 923.762 518.496 923.342 517.977C923.115 517.697 911.27 517.455 911.104 517.731ZM908.11 553.674C912.969 540.66 916.265 530.533 916.265 528.63C916.265 526.416 917.279 527.574 918.354 531.014C918.956 532.94 922.161 541.757 925.476 550.608C928.791 559.456 931.5 566.793 931.5 566.911C931.5 567.024 925.192 567.119 917.484 567.119C909.771 567.119 903.463 566.895 903.463 566.623C903.463 566.351 905.556 560.523 908.11 553.674Z" fill="#010101"/>
<path fill-rule="evenodd" clip-rule="evenodd" d="M1091.66 516.517C1082.86 518.125 1076.1 521.818 1070.03 528.327C1059.18 539.963 1055.86 560.701 1062.16 577.48C1065.71 586.944 1071.76 594.02 1079.96 598.319C1086.77 601.88 1090.45 602.732 1099.12 602.754C1105.93 602.769 1107.32 602.58 1112.19 600.983C1122.5 597.608 1130.26 590.891 1134.76 581.442C1138.16 574.297 1139.03 569.847 1139.03 559.501C1139.04 548.747 1138.28 545.223 1134.17 536.857C1127.91 524.119 1116.07 516.748 1101.01 516.218C1097.46 516.093 1093.25 516.225 1091.66 516.517ZM1079.75 533.212C1083.42 529.739 1085.67 528.414 1090.59 526.829C1095.17 525.349 1102.83 525.349 1107.58 526.829C1120.86 530.961 1127.78 542.26 1127.76 559.751C1127.75 571.001 1125.32 578.592 1119.88 584.409C1113.52 591.216 1107.66 593.563 1097.9 593.218C1092.24 593.021 1091.03 592.768 1087.38 591.057C1081.65 588.356 1077.1 583.883 1074.18 578.051C1071.11 571.913 1070.21 566.566 1070.65 557.064C1071.18 545.416 1073.63 538.995 1079.75 533.212Z" fill="#010101"/>
</svg>
